<?xml version="1.0" encoding="utf-8"?>
<!-- Generator: Adobe Illustrator 27.2.0, SVG Export Plug-In . SVG Version: 6.00 Build 0)  -->
<svg version="1.1" id="Capa_1" xmlns="http://www.w3.org/2000/svg" xmlns:xlink="http://www.w3.org/1999/xlink" x="0px" y="0px"
	 viewBox="0 0 720 278.51" style="enable-background:new 0 0 720 278.51;" xml:space="preserve">
<style type="text/css">
	.st0{fill:#F6E826;stroke:#F5E729;stroke-width:6;stroke-linejoin:round;stroke-miterlimit:10;}
	.st1{fill:#141414;stroke:#141414;stroke-width:7;stroke-linecap:square;stroke-linejoin:round;stroke-miterlimit:10;}
</style>
<g>
	<g>
		<g>
			<g>
				<g>
					<path class="st0" d="M7.36,128.82h16.52v21.48H7.36V128.82z M7.36,176.72h16.52v92.5H7.36V176.72z"/>
				</g>
			</g>
			<g>
				<g>
					<path class="st0" d="M65.75,101.24H49.23V8.73h16.52V101.24z M65.75,149.15H49.23v-21.47h16.52V149.15z"/>
				</g>
			</g>
		</g>
	</g>
	<path class="st1" d="M227.8,13.69v111.88l-72.25-95.89v89.34h-7.03V8.73l72.24,95.9V13.69H227.8z"/>
	<path class="st1" d="M331.52,13.69v7.03h-41.56v98.3h-7.03v-98.3h-41.88v-7.03H331.52z"/>
	<path class="st1" d="M345.58,119.02V13.69h60.09v7.03h-53.06v32.77h35.8v7.04h-35.8v51.46h56.74v7.04H345.58z"/>
	<path class="st1" d="M523.63,54.6c0,0.32,0.02,0.97,0.08,1.92c0.05,0.95,0.08,1.54,0.08,1.75c0.1,0.85,0.16,1.76,0.16,2.71
		c0,0.96,0,1.86,0,2.71c0,4.03-0.35,8.24-1.04,12.59c-0.7,4.36-1.74,8.19-3.12,11.49c-2.25,4.99-5.13,9.45-8.65,13.38
		c-3.52,3.93-7.45,7.31-11.77,10.12c-4.32,2.82-8.91,4.97-13.76,6.46c-4.85,1.48-9.79,2.22-14.8,2.22c-7.26,0-14.12-1.43-20.57-4.31
		c-6.46-2.88-12.09-6.79-16.89-11.76c-4.8-4.94-8.63-10.67-11.45-17.18c-2.82-6.5-4.24-13.37-4.24-20.61
		c0-7.36,1.41-14.31,4.24-20.86c2.82-6.55,6.65-12.25,11.5-17.1c4.84-4.85,10.49-8.69,16.94-11.52c6.45-2.82,13.19-4.22,20.22-4.22
		c3.73,0,7.48,0.43,11.27,1.27c3.78,0.85,7.8,2.18,12.07,4l-2.88,6.87c-3.73-1.81-7.29-3.12-10.71-3.92c-3.41-0.8-6.6-1.2-9.59-1.2
		c-6.5,0-12.55,1.3-18.13,3.92c-5.6,2.61-10.47,6.07-14.63,10.39c-4.15,4.31-7.4,9.27-9.74,14.86c-2.35,5.59-3.52,11.43-3.52,17.51
		c0,6.6,1.25,12.76,3.76,18.45c2.5,5.7,5.89,10.66,10.17,14.87c4.27,4.22,9.15,7.51,14.64,9.91c5.5,2.4,11.3,3.6,17.38,3.6
		c4.27,0,8.51-0.67,12.73-1.99c4.21-1.33,8.19-3.23,11.93-5.68c3.73-2.45,7.12-5.4,10.16-8.87c3.04-3.46,5.52-7.38,7.44-11.75
		c1.17-3.09,2.13-6.52,2.88-10.31c0.74-3.78,1.12-7.38,1.12-10.79c0-0.32-0.02-0.64-0.09-0.96c-0.05-0.32-0.08-0.64-0.08-0.96
		h-38.84V54.6H523.63z"/>
	<path class="st1" d="M549.68,77.94v41.08h-7.03V13.69h29.57c4.47,0,8.66,0.91,12.54,2.72c3.89,1.82,7.28,4.18,10.15,7.12
		c2.88,2.93,5.12,6.31,6.72,10.15c1.59,3.83,2.4,7.83,2.4,11.99c0,6.6-1.82,12.65-5.44,18.14c-3.62,5.49-8.68,9.41-15.19,11.75
		c2.56,3.41,5.28,6.99,8.15,10.71c2.87,3.73,5.75,7.47,8.63,11.19c2.87,3.74,5.72,7.43,8.55,11.11c2.82,3.68,5.52,7.17,8.07,10.48
		h-8.95l-31.65-41.08H549.68z M549.68,20.72V70.9h22.53c3.52,0,6.76-0.67,9.75-1.99c2.98-1.33,5.59-3.14,7.83-5.44
		c2.24-2.28,4-4.95,5.27-7.99c1.28-3.04,1.92-6.26,1.92-9.67c0-3.41-0.64-6.63-1.92-9.68c-1.28-3.04-3.04-5.7-5.27-7.98
		c-2.24-2.29-4.85-4.11-7.83-5.44c-2.99-1.34-6.23-2-9.75-2H549.68z"/>
	<path class="st1" d="M666.68,11.78l43.31,106.92c-1.17,0.21-2.26,0.5-3.28,0.88c-1.01,0.37-2.11,0.66-3.28,0.88l-18.06-42.83
		h-37.72l-8.79,21.58c-1.49,3.61-2.98,7.27-4.47,10.94c-1.5,3.67-2.94,7.21-4.32,10.63c-0.53-0.12-1.09-0.22-1.67-0.32
		c-0.59-0.12-1.2-0.28-1.84-0.49l-3.04-0.8L666.68,11.78z M682.66,71.71c-0.43-0.97-0.85-2.09-1.28-3.37
		c-0.43-1.29-0.85-2.52-1.28-3.69c-1.18-2.99-2.3-5.91-3.36-8.74c-1.06-2.84-2.13-5.69-3.2-8.59l-6.87-18.92l-16.46,43.31H682.66z"
		/>
	<rect x="113.09" y="13.74" class="st1" width="7.03" height="11.68"/>
	<rect x="113.09" y="39.13" class="st1" width="7.03" height="79.83"/>
	<rect x="335.04" y="256.21" class="st1" width="7.03" height="11.68"/>
	<rect x="335.04" y="162.67" class="st1" width="7.03" height="79.83"/>
	<path class="st1" d="M403.69,162.62c7.26,0,14.1,1.38,20.49,4.16c6.41,2.77,11.99,6.55,16.73,11.35
		c4.76,4.79,8.51,10.39,11.3,16.78c2.77,6.39,4.15,13.21,4.15,20.46c0,7.25-1.38,14.06-4.15,20.45c-2.78,6.4-6.54,11.96-11.3,16.7
		c-4.75,4.75-10.32,8.5-16.73,11.26c-6.4,2.78-13.24,4.16-20.49,4.16h-32.03V162.62H403.69z M449.35,215.37
		c0-6.29-1.2-12.21-3.6-17.75c-2.4-5.53-5.67-10.39-9.82-14.54c-4.16-4.16-9.01-7.44-14.55-9.83c-5.54-2.4-11.46-3.6-17.74-3.6
		H378.7v91.26h24.93c6.29,0,12.2-1.2,17.74-3.6c5.54-2.4,10.39-5.65,14.55-9.74c4.15-4.11,7.43-8.93,9.82-14.47
		C448.15,227.57,449.35,221.66,449.35,215.37z"/>
	<path class="st1" d="M475.56,267.94V162.62h60.1v7.03h-53.07v32.76h35.81v7.04h-35.81v51.46h56.74v7.03H475.56z"/>
	<path class="st1" d="M585.68,160.71L629,267.63c-1.17,0.21-2.26,0.5-3.28,0.88c-1.01,0.37-2.1,0.66-3.27,0.88l-18.06-42.84h-37.71
		l-8.8,21.58c-1.49,3.62-2.99,7.27-4.48,10.95c-1.49,3.67-2.94,7.22-4.32,10.63c-0.54-0.12-1.1-0.22-1.68-0.32
		c-0.58-0.12-1.2-0.28-1.83-0.49l-3.04-0.8L585.68,160.71z M601.67,220.64c-0.43-0.96-0.85-2.09-1.28-3.36
		c-0.43-1.29-0.86-2.52-1.28-3.7c-1.18-2.99-2.3-5.91-3.36-8.74c-1.06-2.83-2.13-5.69-3.2-8.58l-6.87-18.93l-16.46,43.31H601.67z"/>
	<path class="st1" d="M712.75,239.18c0,4.79-1.04,9.06-3.11,12.78c-2.09,3.74-4.88,6.88-8.4,9.44c-3.52,2.56-7.66,4.48-12.39,5.75
		c-4.74,1.28-9.78,1.92-15.1,1.92c-2.23,0-4.71-0.16-7.43-0.48c-2.72-0.32-5.5-0.74-8.31-1.27c-2.83-0.54-5.65-1.2-8.47-2
		c-2.82-0.8-5.52-1.62-8.08-2.48l2.81-5.91l4.22,0.95c1.29,0.32,2.84,0.7,4.66,1.13c1.8,0.42,3.73,0.85,5.76,1.27
		c2.03,0.43,4.04,0.77,6.01,1.04c1.98,0.27,3.78,0.4,5.37,0.4h6.74c3.73,0,7.31-0.53,10.74-1.59c3.42-1.06,6.43-2.58,9.05-4.55
		c2.63-1.97,4.71-4.43,6.26-7.35c1.54-2.94,2.32-6.32,2.32-10.15c0-1.7-0.4-3.55-1.2-5.51c-0.81-1.98-1.68-3.6-2.64-4.88
		c-1.59-2.13-3.39-3.84-5.36-5.12c-1.97-1.28-4.02-2.26-6.15-2.96c-2.14-0.69-4.32-1.17-6.55-1.43c-2.24-0.27-4.53-0.51-6.87-0.72
		c-3.73-0.22-7.44-0.56-11.11-1.03c-3.68-0.48-7.27-1.78-10.78-3.92h0.16c-3.73-2.13-6.83-5.17-9.27-9.12
		c-2.46-3.93-3.68-8.36-3.68-13.26c0-6.92,2.53-12.86,7.59-17.82c5.06-4.95,11.91-8.29,20.53-9.99c1.17-0.21,2.99-0.42,5.44-0.64
		c2.46-0.21,5.33-0.32,8.63-0.32c1.7,0,3.64,0.15,5.84,0.47c2.18,0.31,4.42,0.72,6.71,1.24c2.3,0.52,4.53,1.1,6.71,1.73
		c2.2,0.62,4.19,1.29,6,2.03l-2.72,6.51c-2.55-0.96-4.95-1.73-7.19-2.32c-2.24-0.57-4.4-1.09-6.47-1.51
		c-2.08-0.43-4.13-0.72-6.16-0.88c-2.03-0.16-4.22-0.24-6.56-0.24c-3.51,0-7.11,0.42-10.79,1.29c-3.68,0.85-7.03,2.16-10.07,3.92
		c-3.03,1.76-5.54,4.02-7.51,6.74c-1.98,2.73-2.96,6.02-2.96,9.87c0,2.57,0.83,5.4,2.48,8.5c1.66,3.1,3.72,5.46,6.18,7.06
		c3.1,1.93,6.21,3.14,9.38,3.61c3.14,0.49,6.38,0.83,9.69,1.05c3.74,0.21,7.67,0.71,11.78,1.51c4.11,0.8,7.99,2.38,11.62,4.72
		c3.85,2.45,6.91,5.75,9.21,9.91C711.6,230.71,712.75,234.91,712.75,239.18z"/>
</g>
</svg>
